{
  "accessors": [
    {
      "bufferView": 2,
      "componentType": 5126,
      "count": 10443,
      "max": [
        96.33772277832031,
        94.74102783203125,
        92.02792358398438
      ],
      "min": [
        -96.33707427978516,
        -94.74130249023438,
        -92.0269775390625
      ],
      "type": "VEC3"
    },
    {
      "bufferView": 2,
      "byteOffset": 125316,
      "componentType": 5126,
      "count": 10443,
      "max": [
        0.9348122477531433,
        0.9822701215744019,
        0.9999998211860657
      ],
      "min": [
        -0.9351018667221069,
        -0.9822436571121216,
        -1.0
      ],
      "type": "VEC3"
    },
    {
      "bufferView": 1,
      "componentType": 5126,
      "count": 10443,
      "max": [
        0.9929999709129333,
        0.9950000047683716
      ],
      "min": [
        0.0020000000949949026,
        0.001000046730041504
      ],
      "type": "VEC2"
    },
    {
      "bufferView": 0,
      "componentType": 5125,
      "count": 50112,
      "type": "SCALAR"
    },
    {
      "bufferView": 2,
      "byteOffset": 250632,
      "componentType": 5126,
      "count": 65533,
      "max": [
        109.13336944580078,
        105.05683135986328,
        99.37930297851563
      ],
      "min": [
        -105.40601348876953,
        -106.69927978515625,
        -102.67833709716797
      ],
      "type": "VEC3"
    },
    {
      "bufferView": 2,
      "byteOffset": 1037028,
      "componentType": 5126,
      "count": 65533,
      "max": [
        0.8944334387779236,
        1.0,
        0.8944334387779236
      ],
      "min": [
        -0.956084132194519,
        -0.913640558719635,
        -0.9296751022338867
      ],
      "type": "VEC3"
    },
    {
      "bufferView": 1,
      "byteOffset": 83544,
      "componentType": 5126,
      "count": 65533,
      "max": [
        1.0,
        1.0
      ],
      "min": [
        0.0,
        0.0
      ],
      "type": "VEC2"
    },
    {
      "bufferView": 0,
      "byteOffset": 200448,
      "componentType": 5125,
      "count": 91761,
      "type": "SCALAR"
    },
    {
      "bufferView": 2,
      "byteOffset": 1823424,
      "componentType": 5126,
      "count": 58611,
      "max": [
        109.13336944580078,
        104.40178680419922,
        99.37930297851563
      ],
      "min": [
        -105.57402038574219,
        -104.87535095214844,
        -101.12030029296875
      ],
      "type": "VEC3"
    },
    {
      "bufferView": 2,
      "byteOffset": 2526756,
      "componentType": 5126,
      "count": 58611,
      "max": [
        0.34213194251060486,
        0.8584660291671753,
        0.28156888484954834
      ],
      "min": [
        -0.956084132194519,
        -0.913640558719635,
        -0.9296751022338867
      ],
      "type": "VEC3"
    },
    {
      "bufferView": 1,
      "byteOffset": 607808,
      "componentType": 5126,
      "count": 58611,
      "max": [
        1.0,
        1.0
      ],
      "min": [
        0.0,
        0.0
      ],
      "type": "VEC2"
    },
    {
      "bufferView": 0,
      "byteOffset": 567492,
      "componentType": 5125,
      "count": 58611,
      "type": "SCALAR"
    }
  ],
  "asset": {
    "extras": {
      "author": "madhat (https://sketchfab.com/madhat110)",
      "license": "CC-BY-NC-4.0 (http://creativecommons.org/licenses/by-nc/4.0/)",
      "source": "https://sketchfab.com/3d-models/parametric-surface-0542e418234e4f93818ef567e206bd7b",
      "title": "Parametric Surface"
    },
    "generator": "Sketchfab-12.66.0",
    "version": "2.0"
  },
  "bufferViews": [
    {
      "buffer": 0,
      "byteLength": 801936,
      "name": "floatBufferViews",
      "target": 34963
    },
    {
      "buffer": 0,
      "byteLength": 1076696,
      "byteOffset": 801936,
      "byteStride": 8,
      "name": "floatBufferViews",
      "target": 34962
    },
    {
      "buffer": 0,
      "byteLength": 3230088,
      "byteOffset": 1878632,
      "byteStride": 12,
      "name": "floatBufferViews",
      "target": 34962
    }
  ],
  "buffers": [
    {
      "byteLength": 5108720,
      "uri": "scene.bin"
    }
  ],
  "materials": [
    {
      "doubleSided": true,
      "name": "Scene_-_Root",
      "pbrMetallicRoughness": {
        "metallicFactor": 0.4539926041446677,
        "roughnessFactor": 0.27593573265353855
      }
    }
  ],
  "meshes": [
    {
      "name": "Platonic__0",
      "primitives": [
        {
          "attributes": {
            "NORMAL": 1,
            "POSITION": 0,
            "TEXCOORD_0": 2
          },
          "indices": 3,
          "material": 0,
          "mode": 4
        }
      ]
    },
    {
      "name": "ComputationalDesignHype__0",
      "primitives": [
        {
          "attributes": {
            "NORMAL": 5,
            "POSITION": 4,
            "TEXCOORD_0": 6
          },
          "indices": 7,
          "material": 0,
          "mode": 4
        }
      ]
    },
    {
      "name": "ComputationalDesignHype__0",
      "primitives": [
        {
          "attributes": {
            "NORMAL": 9,
            "POSITION": 8,
            "TEXCOORD_0": 10
          },
          "indices": 11,
          "material": 0,
          "mode": 4
        }
      ]
    }
  ],
  "nodes": [
    {
      "children": [
        1
      ],
      "matrix": [
        1.0,
        0.0,
        0.0,
        0.0,
        0.0,
        2.220446049250313e-16,
        -1.0,
        0.0,
        0.0,
        1.0,
        2.220446049250313e-16,
        0.0,
        0.0,
        0.0,
        0.0,
        1.0
      ],
      "name": "Sketchfab_model"
    },
    {
      "children": [
        2
      ],
      "matrix": [
        1.0,
        0.0,
        0.0,
        0.0,
        0.0,
        0.0,
        1.0,
        0.0,
        0.0,
        -1.0,
        0.0,
        0.0,
        0.0,
        0.0,
        0.0,
        1.0
      ],
      "name": "b311d4e8954e4d2d8d38e03f6f2508cf.fbx"
    },
    {
      "children": [
        3,
        5,
        7
      ],
      "name": "RootNode"
    },
    {
      "children": [
        4
      ],
      "matrix": [
        -0.6667539179723689,
        -0.3329841223496841,
        -0.6667539179723695,
        0.0,
        -0.23545533094091287,
        0.9429324335619231,
        -0.23545533094091242,
        0.0,
        0.7071067811865474,
        4.0245584642661925e-16,
        -0.707106781186547,
        0.0,
        0.00042506103636696935,
        -0.00036794881452806294,
        -0.0001780285529093817,
        1.0
      ],
      "name": "CINEMA_4D_Editor"
    },
    {
      "name": "Object_4"
    },
    {
      "children": [
        6
      ],
      "matrix": [
        -0.04652600704473109,
        -0.9906299309456096,
        0.12840432462799245,
        0.0,
        -0.6864090884872164,
        -0.06168321845135338,
        -0.7245948825403281,
        0.0,
        0.725725770460594,
        -0.12185040203536418,
        -0.6771075140723206,
        0.0,
        0.0,
        0.0,
        0.0,
        1.0
      ],
      "name": "Platonic"
    },
    {
      "mesh": 0,
      "name": "Platonic__0"
    },
    {
      "children": [
        8,
        9
      ],
      "matrix": [
        1.0,
        0.0,
        0.0,
        0.0,
        0.0,
        1.0,
        0.0,
        0.0,
        0.0,
        0.0,
        1.0,
        0.0,
        -0.016695261001586914,
        0.004041194915771484,
        -0.00470578670501709,
        1.0
      ],
      "name": "ComputationalDesignHype"
    },
    {
      "mesh": 1,
      "name": "ComputationalDesignHype__0"
    },
    {
      "mesh": 2,
      "name": "ComputationalDesignHype__0"
    }
  ],
  "scene": 0,
  "scenes": [
    {
      "name": "Sketchfab_Scene",
      "nodes": [
        0
      ]
    }
  ]
}
