<svg xmlns="http://www.w3.org/2000/svg" version="1.1" xmlns:xlink="http://www.w3.org/1999/xlink" xmlns:svgjs="http://svgjs.dev/svgjs" width="1000" height="558" viewBox="0 0 1000 558"><g transform="matrix(1,0,0,1,-0.6060535679773693,0.2912394531013547)"><svg viewBox="0 0 396 221" data-background-color="#ffffff" preserveAspectRatio="xMidYMid meet" height="558" width="1000" xmlns="http://www.w3.org/2000/svg" xmlns:xlink="http://www.w3.org/1999/xlink"><g id="tight-bounds" transform="matrix(1,0,0,1,0.23999721291903597,-0.11533860667306328)"><svg viewBox="0 0 395.52 221.23068613200533" height="221.23068613200533" width="395.52"><g><svg viewBox="0 0 441.9483829727873 247.2" height="221.23068613200533" width="395.52"><g transform="matrix(1,0,0,1,204.87150054214,0)"><svg viewBox="0 0 237.0768824306473 247.2" height="247.2" width="237.0768824306473"><g id="textblocktransform"><svg viewBox="0 0 237.0768824306473 247.2" height="247.2" width="237.0768824306473" id="textblock"><g><svg viewBox="0 0 237.0768824306473 247.2" height="247.2" width="237.0768824306473"><g transform="matrix(1,0,0,1,0,0)"><svg width="237.0768824306473" viewBox="4.449999809265137 -37.849998474121094 36.29999923706055 37.849998474121094" height="247.2" data-palette-color="#010c80"><g class="wordmark-text-0" data-fill-palette-color="primary" id="text-0"><path d="M4.45 0L4.45-37.85Q4.9-37.15 6.33-35.18 7.75-33.2 9.63-30.6 11.5-28 13.6-25.08 15.7-22.15 17.55-19.58 19.4-17 20.78-15.1 22.15-13.2 22.6-12.6L22.6-12.6Q22.75-12.85 23.55-13.95 24.35-15.05 25.53-16.7 26.7-18.35 28.2-20.43 29.7-22.5 31.28-24.68 32.85-26.85 34.38-29 35.9-31.15 37.2-32.93 38.5-34.7 39.43-36.02 40.35-37.35 40.75-37.85L40.75-37.85 40.75 0 34.95 0 34.95-20.3Q34.95-20.7 35.02-21.15 35.1-21.6 35.1-21.8L35.1-21.8Q34.65-21.2 33.68-19.78 32.7-18.35 31.43-16.53 30.15-14.7 28.75-12.68 27.35-10.65 26.1-8.85 24.85-7.05 23.9-5.68 22.95-4.3 22.6-3.75L22.6-3.75Q22.25-4.2 21.23-5.63 20.2-7.05 18.82-8.95 17.45-10.85 15.93-13 14.4-15.15 13.1-17 11.8-18.85 10.85-20.18 9.9-21.5 9.75-21.8L9.75-21.8Q9.75-21.6 9.83-21.15 9.9-20.7 9.9-20.3L9.9-20.3 9.9 0 4.45 0Z" fill="#010c80" data-fill-palette-color="primary"></path></g></svg></g></svg></g></svg></g></svg></g><g transform="matrix(1,0,0,1,0,50.34324332892999)"><svg viewBox="0 0 146.51351334214002 146.51351334214002" height="146.51351334214002" width="146.51351334214002"><g><svg xmlns="http://www.w3.org/2000/svg" xmlns:xlink="http://www.w3.org/1999/xlink" version="1.1" x="0" y="0" viewBox="0 0 16 16" style="enable-background:new 0 0 16 16;" xml:space="preserve" height="146.51351334214002" width="146.51351334214002" class="icon-icon-0" data-fill-palette-color="accent" id="icon-0"><g fill="#8499e3" data-fill-palette-color="accent"><path d="M12 1H4V0H0v4h1v8H0v4h4v-1h8v1h4v-4h-1V4h1V0h-4V1zM13 12h-1v1H4v-1H3V4h1V3h8v1h1V12z" fill="#8499e3" data-fill-palette-color="accent"></path></g></svg></g></svg></g></svg></g><defs></defs></svg><rect width="395.52" height="221.23068613200533" fill="none" stroke="none" visibility="hidden"></rect></g></svg></g></svg>